G04 #@! TF.FileFunction,Legend,Top*
%FSLAX46Y46*%
G04 Gerber Fmt 4.6, Leading zero omitted, Abs format (unit mm)*
G04 Created by KiCad (PCBNEW 4.0.6) date 06/21/17 09:44:36*
%MOMM*%
%LPD*%
G01*
G04 APERTURE LIST*
%ADD10C,0.100000*%
%ADD11C,0.150000*%
%ADD12C,0.300000*%
%ADD13C,0.400000*%
%ADD14C,0.203200*%
%ADD15C,0.317500*%
%ADD16C,0.225000*%
%ADD17C,0.175000*%
G04 APERTURE END LIST*
D10*
D11*
X177002200Y-166007200D02*
X177002200Y-198007200D01*
X285002200Y-198007200D01*
X285002200Y-166007200D01*
X177002200Y-166007200D01*
D10*
D11*
X10000000Y-10000000D02*
X10000000Y-200007200D01*
X287002200Y-200007200D01*
X287002200Y-10000000D01*
X10000000Y-10000000D01*
D10*
D11*
X12000000Y-12000000D02*
X12000000Y-198007200D01*
X285002200Y-198007200D01*
X285002200Y-12000000D01*
X12000000Y-12000000D01*
D10*
D11*
X60000000Y-12000000D02*
X60000000Y-10000000D01*
D10*
D11*
X110000000Y-12000000D02*
X110000000Y-10000000D01*
D10*
D11*
X160000000Y-12000000D02*
X160000000Y-10000000D01*
D10*
D11*
X210000000Y-12000000D02*
X210000000Y-10000000D01*
D10*
D11*
X260000000Y-12000000D02*
X260000000Y-10000000D01*
D10*
D11*
X35990476Y-11588095D02*
X35247619Y-11588095D01*
X35619048Y-11588095D02*
X35619048Y-10288095D01*
X35495238Y-10473810D01*
X35371429Y-10597619D01*
X35247619Y-10659524D01*
D10*
D11*
X85247619Y-10411905D02*
X85309524Y-10350000D01*
X85433333Y-10288095D01*
X85742857Y-10288095D01*
X85866667Y-10350000D01*
X85928571Y-10411905D01*
X85990476Y-10535714D01*
X85990476Y-10659524D01*
X85928571Y-10845238D01*
X85185714Y-11588095D01*
X85990476Y-11588095D01*
D10*
D11*
X135185714Y-10288095D02*
X135990476Y-10288095D01*
X135557143Y-10783333D01*
X135742857Y-10783333D01*
X135866667Y-10845238D01*
X135928571Y-10907143D01*
X135990476Y-11030952D01*
X135990476Y-11340476D01*
X135928571Y-11464286D01*
X135866667Y-11526190D01*
X135742857Y-11588095D01*
X135371429Y-11588095D01*
X135247619Y-11526190D01*
X135185714Y-11464286D01*
D10*
D11*
X185866667Y-10721429D02*
X185866667Y-11588095D01*
X185557143Y-10226190D02*
X185247619Y-11154762D01*
X186052381Y-11154762D01*
D10*
D11*
X235928571Y-10288095D02*
X235309524Y-10288095D01*
X235247619Y-10907143D01*
X235309524Y-10845238D01*
X235433333Y-10783333D01*
X235742857Y-10783333D01*
X235866667Y-10845238D01*
X235928571Y-10907143D01*
X235990476Y-11030952D01*
X235990476Y-11340476D01*
X235928571Y-11464286D01*
X235866667Y-11526190D01*
X235742857Y-11588095D01*
X235433333Y-11588095D01*
X235309524Y-11526190D01*
X235247619Y-11464286D01*
D10*
D11*
X285866667Y-10288095D02*
X285619048Y-10288095D01*
X285495238Y-10350000D01*
X285433333Y-10411905D01*
X285309524Y-10597619D01*
X285247619Y-10845238D01*
X285247619Y-11340476D01*
X285309524Y-11464286D01*
X285371429Y-11526190D01*
X285495238Y-11588095D01*
X285742857Y-11588095D01*
X285866667Y-11526190D01*
X285928571Y-11464286D01*
X285990476Y-11340476D01*
X285990476Y-11030952D01*
X285928571Y-10907143D01*
X285866667Y-10845238D01*
X285742857Y-10783333D01*
X285495238Y-10783333D01*
X285371429Y-10845238D01*
X285309524Y-10907143D01*
X285247619Y-11030952D01*
D10*
D11*
X60000000Y-198007200D02*
X60000000Y-200007200D01*
D10*
D11*
X110000000Y-198007200D02*
X110000000Y-200007200D01*
D10*
D11*
X160000000Y-198007200D02*
X160000000Y-200007200D01*
D10*
D11*
X210000000Y-198007200D02*
X210000000Y-200007200D01*
D10*
D11*
X260000000Y-198007200D02*
X260000000Y-200007200D01*
D10*
D11*
X35990476Y-199595295D02*
X35247619Y-199595295D01*
X35619048Y-199595295D02*
X35619048Y-198295295D01*
X35495238Y-198481010D01*
X35371429Y-198604819D01*
X35247619Y-198666724D01*
D10*
D11*
X85247619Y-198419105D02*
X85309524Y-198357200D01*
X85433333Y-198295295D01*
X85742857Y-198295295D01*
X85866667Y-198357200D01*
X85928571Y-198419105D01*
X85990476Y-198542914D01*
X85990476Y-198666724D01*
X85928571Y-198852438D01*
X85185714Y-199595295D01*
X85990476Y-199595295D01*
D10*
D11*
X135185714Y-198295295D02*
X135990476Y-198295295D01*
X135557143Y-198790533D01*
X135742857Y-198790533D01*
X135866667Y-198852438D01*
X135928571Y-198914343D01*
X135990476Y-199038152D01*
X135990476Y-199347676D01*
X135928571Y-199471486D01*
X135866667Y-199533390D01*
X135742857Y-199595295D01*
X135371429Y-199595295D01*
X135247619Y-199533390D01*
X135185714Y-199471486D01*
D10*
D11*
X185866667Y-198728629D02*
X185866667Y-199595295D01*
X185557143Y-198233390D02*
X185247619Y-199161962D01*
X186052381Y-199161962D01*
D10*
D11*
X235928571Y-198295295D02*
X235309524Y-198295295D01*
X235247619Y-198914343D01*
X235309524Y-198852438D01*
X235433333Y-198790533D01*
X235742857Y-198790533D01*
X235866667Y-198852438D01*
X235928571Y-198914343D01*
X235990476Y-199038152D01*
X235990476Y-199347676D01*
X235928571Y-199471486D01*
X235866667Y-199533390D01*
X235742857Y-199595295D01*
X235433333Y-199595295D01*
X235309524Y-199533390D01*
X235247619Y-199471486D01*
D10*
D11*
X285866667Y-198295295D02*
X285619048Y-198295295D01*
X285495238Y-198357200D01*
X285433333Y-198419105D01*
X285309524Y-198604819D01*
X285247619Y-198852438D01*
X285247619Y-199347676D01*
X285309524Y-199471486D01*
X285371429Y-199533390D01*
X285495238Y-199595295D01*
X285742857Y-199595295D01*
X285866667Y-199533390D01*
X285928571Y-199471486D01*
X285990476Y-199347676D01*
X285990476Y-199038152D01*
X285928571Y-198914343D01*
X285866667Y-198852438D01*
X285742857Y-198790533D01*
X285495238Y-198790533D01*
X285371429Y-198852438D01*
X285309524Y-198914343D01*
X285247619Y-199038152D01*
D10*
D11*
X10000000Y-60000000D02*
X12000000Y-60000000D01*
D10*
D11*
X10000000Y-110000000D02*
X12000000Y-110000000D01*
D10*
D11*
X10000000Y-160000000D02*
X12000000Y-160000000D01*
D10*
D11*
X10690476Y-35216667D02*
X11309524Y-35216667D01*
X10566667Y-35588095D02*
X11000000Y-34288095D01*
X11433333Y-35588095D01*
D10*
D11*
X11092857Y-84907143D02*
X11278571Y-84969048D01*
X11340476Y-85030952D01*
X11402381Y-85154762D01*
X11402381Y-85340476D01*
X11340476Y-85464286D01*
X11278571Y-85526190D01*
X11154762Y-85588095D01*
X10659524Y-85588095D01*
X10659524Y-84288095D01*
X11092857Y-84288095D01*
X11216667Y-84350000D01*
X11278571Y-84411905D01*
X11340476Y-84535714D01*
X11340476Y-84659524D01*
X11278571Y-84783333D01*
X11216667Y-84845238D01*
X11092857Y-84907143D01*
X10659524Y-84907143D01*
D10*
D11*
X11402381Y-135464286D02*
X11340476Y-135526190D01*
X11154762Y-135588095D01*
X11030952Y-135588095D01*
X10845238Y-135526190D01*
X10721429Y-135402381D01*
X10659524Y-135278571D01*
X10597619Y-135030952D01*
X10597619Y-134845238D01*
X10659524Y-134597619D01*
X10721429Y-134473810D01*
X10845238Y-134350000D01*
X11030952Y-134288095D01*
X11154762Y-134288095D01*
X11340476Y-134350000D01*
X11402381Y-134411905D01*
D10*
D11*
X10659524Y-185588095D02*
X10659524Y-184288095D01*
X10969048Y-184288095D01*
X11154762Y-184350000D01*
X11278571Y-184473810D01*
X11340476Y-184597619D01*
X11402381Y-184845238D01*
X11402381Y-185030952D01*
X11340476Y-185278571D01*
X11278571Y-185402381D01*
X11154762Y-185526190D01*
X10969048Y-185588095D01*
X10659524Y-185588095D01*
D10*
D11*
X287002200Y-60000000D02*
X285002200Y-60000000D01*
D10*
D11*
X287002200Y-110000000D02*
X285002200Y-110000000D01*
D10*
D11*
X287002200Y-160000000D02*
X285002200Y-160000000D01*
D10*
D11*
X285692676Y-35216667D02*
X286311724Y-35216667D01*
X285568867Y-35588095D02*
X286002200Y-34288095D01*
X286435533Y-35588095D01*
D10*
D11*
X286095057Y-84907143D02*
X286280771Y-84969048D01*
X286342676Y-85030952D01*
X286404581Y-85154762D01*
X286404581Y-85340476D01*
X286342676Y-85464286D01*
X286280771Y-85526190D01*
X286156962Y-85588095D01*
X285661724Y-85588095D01*
X285661724Y-84288095D01*
X286095057Y-84288095D01*
X286218867Y-84350000D01*
X286280771Y-84411905D01*
X286342676Y-84535714D01*
X286342676Y-84659524D01*
X286280771Y-84783333D01*
X286218867Y-84845238D01*
X286095057Y-84907143D01*
X285661724Y-84907143D01*
D10*
D11*
X286404581Y-135464286D02*
X286342676Y-135526190D01*
X286156962Y-135588095D01*
X286033152Y-135588095D01*
X285847438Y-135526190D01*
X285723629Y-135402381D01*
X285661724Y-135278571D01*
X285599819Y-135030952D01*
X285599819Y-134845238D01*
X285661724Y-134597619D01*
X285723629Y-134473810D01*
X285847438Y-134350000D01*
X286033152Y-134288095D01*
X286156962Y-134288095D01*
X286342676Y-134350000D01*
X286404581Y-134411905D01*
D10*
D11*
X285661724Y-185588095D02*
X285661724Y-184288095D01*
X285971248Y-184288095D01*
X286156962Y-184350000D01*
X286280771Y-184473810D01*
X286342676Y-184597619D01*
X286404581Y-184845238D01*
X286404581Y-185030952D01*
X286342676Y-185278571D01*
X286280771Y-185402381D01*
X286156962Y-185526190D01*
X285971248Y-185588095D01*
X285661724Y-185588095D01*
D10*
D11*
X200359343Y-193785771D02*
X200359343Y-192285771D01*
X200716486Y-192285771D01*
X200930771Y-192357200D01*
X201073629Y-192500057D01*
X201145057Y-192642914D01*
X201216486Y-192928629D01*
X201216486Y-193142914D01*
X201145057Y-193428629D01*
X201073629Y-193571486D01*
X200930771Y-193714343D01*
X200716486Y-193785771D01*
X200359343Y-193785771D01*
X202502200Y-193785771D02*
X202502200Y-193000057D01*
X202430771Y-192857200D01*
X202287914Y-192785771D01*
X202002200Y-192785771D01*
X201859343Y-192857200D01*
X202502200Y-193714343D02*
X202359343Y-193785771D01*
X202002200Y-193785771D01*
X201859343Y-193714343D01*
X201787914Y-193571486D01*
X201787914Y-193428629D01*
X201859343Y-193285771D01*
X202002200Y-193214343D01*
X202359343Y-193214343D01*
X202502200Y-193142914D01*
X203002200Y-192785771D02*
X203573629Y-192785771D01*
X203216486Y-192285771D02*
X203216486Y-193571486D01*
X203287914Y-193714343D01*
X203430772Y-193785771D01*
X203573629Y-193785771D01*
X204645057Y-193714343D02*
X204502200Y-193785771D01*
X204216486Y-193785771D01*
X204073629Y-193714343D01*
X204002200Y-193571486D01*
X204002200Y-193000057D01*
X204073629Y-192857200D01*
X204216486Y-192785771D01*
X204502200Y-192785771D01*
X204645057Y-192857200D01*
X204716486Y-193000057D01*
X204716486Y-193142914D01*
X204002200Y-193285771D01*
X205359343Y-193642914D02*
X205430771Y-193714343D01*
X205359343Y-193785771D01*
X205287914Y-193714343D01*
X205359343Y-193642914D01*
X205359343Y-193785771D01*
X205359343Y-192857200D02*
X205430771Y-192928629D01*
X205359343Y-193000057D01*
X205287914Y-192928629D01*
X205359343Y-192857200D01*
X205359343Y-193000057D01*
D10*
D11*
X177002200Y-194507200D02*
X285002200Y-194507200D01*
D10*
D11*
X178359343Y-196585771D02*
X178359343Y-195085771D01*
X179216486Y-196585771D02*
X178573629Y-195728629D01*
X179216486Y-195085771D02*
X178359343Y-195942914D01*
X179859343Y-196585771D02*
X179859343Y-195585771D01*
X179859343Y-195085771D02*
X179787914Y-195157200D01*
X179859343Y-195228629D01*
X179930771Y-195157200D01*
X179859343Y-195085771D01*
X179859343Y-195228629D01*
X181430772Y-196442914D02*
X181359343Y-196514343D01*
X181145057Y-196585771D01*
X181002200Y-196585771D01*
X180787915Y-196514343D01*
X180645057Y-196371486D01*
X180573629Y-196228629D01*
X180502200Y-195942914D01*
X180502200Y-195728629D01*
X180573629Y-195442914D01*
X180645057Y-195300057D01*
X180787915Y-195157200D01*
X181002200Y-195085771D01*
X181145057Y-195085771D01*
X181359343Y-195157200D01*
X181430772Y-195228629D01*
X182716486Y-196585771D02*
X182716486Y-195800057D01*
X182645057Y-195657200D01*
X182502200Y-195585771D01*
X182216486Y-195585771D01*
X182073629Y-195657200D01*
X182716486Y-196514343D02*
X182573629Y-196585771D01*
X182216486Y-196585771D01*
X182073629Y-196514343D01*
X182002200Y-196371486D01*
X182002200Y-196228629D01*
X182073629Y-196085771D01*
X182216486Y-196014343D01*
X182573629Y-196014343D01*
X182716486Y-195942914D01*
X184073629Y-196585771D02*
X184073629Y-195085771D01*
X184073629Y-196514343D02*
X183930772Y-196585771D01*
X183645058Y-196585771D01*
X183502200Y-196514343D01*
X183430772Y-196442914D01*
X183359343Y-196300057D01*
X183359343Y-195871486D01*
X183430772Y-195728629D01*
X183502200Y-195657200D01*
X183645058Y-195585771D01*
X183930772Y-195585771D01*
X184073629Y-195657200D01*
X185930772Y-195800057D02*
X186430772Y-195800057D01*
X186645058Y-196585771D02*
X185930772Y-196585771D01*
X185930772Y-195085771D01*
X186645058Y-195085771D01*
X187287915Y-196442914D02*
X187359343Y-196514343D01*
X187287915Y-196585771D01*
X187216486Y-196514343D01*
X187287915Y-196442914D01*
X187287915Y-196585771D01*
X188002201Y-196585771D02*
X188002201Y-195085771D01*
X188359344Y-195085771D01*
X188573629Y-195157200D01*
X188716487Y-195300057D01*
X188787915Y-195442914D01*
X188859344Y-195728629D01*
X188859344Y-195942914D01*
X188787915Y-196228629D01*
X188716487Y-196371486D01*
X188573629Y-196514343D01*
X188359344Y-196585771D01*
X188002201Y-196585771D01*
X189502201Y-196442914D02*
X189573629Y-196514343D01*
X189502201Y-196585771D01*
X189430772Y-196514343D01*
X189502201Y-196442914D01*
X189502201Y-196585771D01*
X190145058Y-196157200D02*
X190859344Y-196157200D01*
X190002201Y-196585771D02*
X190502201Y-195085771D01*
X191002201Y-196585771D01*
X191502201Y-196442914D02*
X191573629Y-196514343D01*
X191502201Y-196585771D01*
X191430772Y-196514343D01*
X191502201Y-196442914D01*
X191502201Y-196585771D01*
X194502201Y-196585771D02*
X194502201Y-195085771D01*
X194645058Y-196014343D02*
X195073629Y-196585771D01*
X195073629Y-195585771D02*
X194502201Y-196157200D01*
X195716487Y-196585771D02*
X195716487Y-195585771D01*
X195716487Y-195085771D02*
X195645058Y-195157200D01*
X195716487Y-195228629D01*
X195787915Y-195157200D01*
X195716487Y-195085771D01*
X195716487Y-195228629D01*
X197073630Y-196514343D02*
X196930773Y-196585771D01*
X196645059Y-196585771D01*
X196502201Y-196514343D01*
X196430773Y-196442914D01*
X196359344Y-196300057D01*
X196359344Y-195871486D01*
X196430773Y-195728629D01*
X196502201Y-195657200D01*
X196645059Y-195585771D01*
X196930773Y-195585771D01*
X197073630Y-195657200D01*
X198359344Y-196585771D02*
X198359344Y-195800057D01*
X198287915Y-195657200D01*
X198145058Y-195585771D01*
X197859344Y-195585771D01*
X197716487Y-195657200D01*
X198359344Y-196514343D02*
X198216487Y-196585771D01*
X197859344Y-196585771D01*
X197716487Y-196514343D01*
X197645058Y-196371486D01*
X197645058Y-196228629D01*
X197716487Y-196085771D01*
X197859344Y-196014343D01*
X198216487Y-196014343D01*
X198359344Y-195942914D01*
X199716487Y-196585771D02*
X199716487Y-195085771D01*
X199716487Y-196514343D02*
X199573630Y-196585771D01*
X199287916Y-196585771D01*
X199145058Y-196514343D01*
X199073630Y-196442914D01*
X199002201Y-196300057D01*
X199002201Y-195871486D01*
X199073630Y-195728629D01*
X199145058Y-195657200D01*
X199287916Y-195585771D01*
X199573630Y-195585771D01*
X199716487Y-195657200D01*
X202216487Y-195585771D02*
X202216487Y-196585771D01*
X201859344Y-195014343D02*
X201502201Y-196085771D01*
X202430773Y-196085771D01*
X203002201Y-196442914D02*
X203073629Y-196514343D01*
X203002201Y-196585771D01*
X202930772Y-196514343D01*
X203002201Y-196442914D01*
X203002201Y-196585771D01*
X204002201Y-195085771D02*
X204145058Y-195085771D01*
X204287915Y-195157200D01*
X204359344Y-195228629D01*
X204430773Y-195371486D01*
X204502201Y-195657200D01*
X204502201Y-196014343D01*
X204430773Y-196300057D01*
X204359344Y-196442914D01*
X204287915Y-196514343D01*
X204145058Y-196585771D01*
X204002201Y-196585771D01*
X203859344Y-196514343D01*
X203787915Y-196442914D01*
X203716487Y-196300057D01*
X203645058Y-196014343D01*
X203645058Y-195657200D01*
X203716487Y-195371486D01*
X203787915Y-195228629D01*
X203859344Y-195157200D01*
X204002201Y-195085771D01*
X205145058Y-196442914D02*
X205216486Y-196514343D01*
X205145058Y-196585771D01*
X205073629Y-196514343D01*
X205145058Y-196442914D01*
X205145058Y-196585771D01*
X206502201Y-195085771D02*
X206216487Y-195085771D01*
X206073630Y-195157200D01*
X206002201Y-195228629D01*
X205859344Y-195442914D01*
X205787915Y-195728629D01*
X205787915Y-196300057D01*
X205859344Y-196442914D01*
X205930772Y-196514343D01*
X206073630Y-196585771D01*
X206359344Y-196585771D01*
X206502201Y-196514343D01*
X206573630Y-196442914D01*
X206645058Y-196300057D01*
X206645058Y-195942914D01*
X206573630Y-195800057D01*
X206502201Y-195728629D01*
X206359344Y-195657200D01*
X206073630Y-195657200D01*
X205930772Y-195728629D01*
X205859344Y-195800057D01*
X205787915Y-195942914D01*
D10*
D11*
X177002200Y-191507200D02*
X285002200Y-191507200D01*
D10*
D12*
X264216486Y-193785771D02*
X263716486Y-193071486D01*
X263359343Y-193785771D02*
X263359343Y-192285771D01*
X263930771Y-192285771D01*
X264073629Y-192357200D01*
X264145057Y-192428629D01*
X264216486Y-192571486D01*
X264216486Y-192785771D01*
X264145057Y-192928629D01*
X264073629Y-193000057D01*
X263930771Y-193071486D01*
X263359343Y-193071486D01*
X265430771Y-193714343D02*
X265287914Y-193785771D01*
X265002200Y-193785771D01*
X264859343Y-193714343D01*
X264787914Y-193571486D01*
X264787914Y-193000057D01*
X264859343Y-192857200D01*
X265002200Y-192785771D01*
X265287914Y-192785771D01*
X265430771Y-192857200D01*
X265502200Y-193000057D01*
X265502200Y-193142914D01*
X264787914Y-193285771D01*
X266002200Y-192785771D02*
X266359343Y-193785771D01*
X266716485Y-192785771D01*
X267287914Y-193642914D02*
X267359342Y-193714343D01*
X267287914Y-193785771D01*
X267216485Y-193714343D01*
X267287914Y-193642914D01*
X267287914Y-193785771D01*
X267287914Y-192857200D02*
X267359342Y-192928629D01*
X267287914Y-193000057D01*
X267216485Y-192928629D01*
X267287914Y-192857200D01*
X267287914Y-193000057D01*
D10*
D11*
X178287914Y-193714343D02*
X178502200Y-193785771D01*
X178859343Y-193785771D01*
X179002200Y-193714343D01*
X179073629Y-193642914D01*
X179145057Y-193500057D01*
X179145057Y-193357200D01*
X179073629Y-193214343D01*
X179002200Y-193142914D01*
X178859343Y-193071486D01*
X178573629Y-193000057D01*
X178430771Y-192928629D01*
X178359343Y-192857200D01*
X178287914Y-192714343D01*
X178287914Y-192571486D01*
X178359343Y-192428629D01*
X178430771Y-192357200D01*
X178573629Y-192285771D01*
X178930771Y-192285771D01*
X179145057Y-192357200D01*
X179787914Y-193785771D02*
X179787914Y-192785771D01*
X179787914Y-192285771D02*
X179716485Y-192357200D01*
X179787914Y-192428629D01*
X179859342Y-192357200D01*
X179787914Y-192285771D01*
X179787914Y-192428629D01*
X180359343Y-192785771D02*
X181145057Y-192785771D01*
X180359343Y-193785771D01*
X181145057Y-193785771D01*
X182287914Y-193714343D02*
X182145057Y-193785771D01*
X181859343Y-193785771D01*
X181716486Y-193714343D01*
X181645057Y-193571486D01*
X181645057Y-193000057D01*
X181716486Y-192857200D01*
X181859343Y-192785771D01*
X182145057Y-192785771D01*
X182287914Y-192857200D01*
X182359343Y-193000057D01*
X182359343Y-193142914D01*
X181645057Y-193285771D01*
X183002200Y-193642914D02*
X183073628Y-193714343D01*
X183002200Y-193785771D01*
X182930771Y-193714343D01*
X183002200Y-193642914D01*
X183002200Y-193785771D01*
X183002200Y-192857200D02*
X183073628Y-192928629D01*
X183002200Y-193000057D01*
X182930771Y-192928629D01*
X183002200Y-192857200D01*
X183002200Y-193000057D01*
X184787914Y-193357200D02*
X185502200Y-193357200D01*
X184645057Y-193785771D02*
X185145057Y-192285771D01*
X185645057Y-193785771D01*
X186787914Y-192785771D02*
X186787914Y-193785771D01*
X186430771Y-192214343D02*
X186073628Y-193285771D01*
X187002200Y-193285771D01*
D10*
D11*
X263359343Y-196585771D02*
X263359343Y-195085771D01*
X264716486Y-196585771D02*
X264716486Y-195085771D01*
X264716486Y-196514343D02*
X264573629Y-196585771D01*
X264287915Y-196585771D01*
X264145057Y-196514343D01*
X264073629Y-196442914D01*
X264002200Y-196300057D01*
X264002200Y-195871486D01*
X264073629Y-195728629D01*
X264145057Y-195657200D01*
X264287915Y-195585771D01*
X264573629Y-195585771D01*
X264716486Y-195657200D01*
X265430772Y-196442914D02*
X265502200Y-196514343D01*
X265430772Y-196585771D01*
X265359343Y-196514343D01*
X265430772Y-196442914D01*
X265430772Y-196585771D01*
X265430772Y-195657200D02*
X265502200Y-195728629D01*
X265430772Y-195800057D01*
X265359343Y-195728629D01*
X265430772Y-195657200D01*
X265430772Y-195800057D01*
X268073629Y-196585771D02*
X267216486Y-196585771D01*
X267645058Y-196585771D02*
X267645058Y-195085771D01*
X267502201Y-195300057D01*
X267359343Y-195442914D01*
X267216486Y-195514343D01*
X269787914Y-195014343D02*
X268502200Y-196942914D01*
X271073629Y-196585771D02*
X270216486Y-196585771D01*
X270645058Y-196585771D02*
X270645058Y-195085771D01*
X270502201Y-195300057D01*
X270359343Y-195442914D01*
X270216486Y-195514343D01*
D10*
D11*
X177002200Y-187507200D02*
X285002200Y-187507200D01*
D10*
D13*
X178454581Y-188211962D02*
X179597438Y-188211962D01*
X178776010Y-190211962D02*
X179026010Y-188211962D01*
X180014105Y-190211962D02*
X180180771Y-188878629D01*
X180264105Y-188211962D02*
X180156962Y-188307200D01*
X180240295Y-188402438D01*
X180347439Y-188307200D01*
X180264105Y-188211962D01*
X180240295Y-188402438D01*
X180847438Y-188878629D02*
X181609343Y-188878629D01*
X181216486Y-188211962D02*
X181002200Y-189926248D01*
X181073630Y-190116724D01*
X181252201Y-190211962D01*
X181442677Y-190211962D01*
X182395058Y-190211962D02*
X182216487Y-190116724D01*
X182145057Y-189926248D01*
X182359343Y-188211962D01*
X183930772Y-190116724D02*
X183728391Y-190211962D01*
X183347439Y-190211962D01*
X183168867Y-190116724D01*
X183097438Y-189926248D01*
X183192676Y-189164343D01*
X183311724Y-188973867D01*
X183514105Y-188878629D01*
X183895057Y-188878629D01*
X184073629Y-188973867D01*
X184145057Y-189164343D01*
X184121248Y-189354819D01*
X183145057Y-189545295D01*
X184895057Y-190021486D02*
X184978392Y-190116724D01*
X184871248Y-190211962D01*
X184787915Y-190116724D01*
X184895057Y-190021486D01*
X184871248Y-190211962D01*
X185026010Y-188973867D02*
X185109344Y-189069105D01*
X185002200Y-189164343D01*
X184918867Y-189069105D01*
X185026010Y-188973867D01*
X185002200Y-189164343D01*
D10*
D11*
X178859343Y-185600057D02*
X178359343Y-185600057D01*
X178359343Y-186385771D02*
X178359343Y-184885771D01*
X179073629Y-184885771D01*
X179645057Y-186385771D02*
X179645057Y-185385771D01*
X179645057Y-184885771D02*
X179573628Y-184957200D01*
X179645057Y-185028629D01*
X179716485Y-184957200D01*
X179645057Y-184885771D01*
X179645057Y-185028629D01*
X180573629Y-186385771D02*
X180430771Y-186314343D01*
X180359343Y-186171486D01*
X180359343Y-184885771D01*
X181716485Y-186314343D02*
X181573628Y-186385771D01*
X181287914Y-186385771D01*
X181145057Y-186314343D01*
X181073628Y-186171486D01*
X181073628Y-185600057D01*
X181145057Y-185457200D01*
X181287914Y-185385771D01*
X181573628Y-185385771D01*
X181716485Y-185457200D01*
X181787914Y-185600057D01*
X181787914Y-185742914D01*
X181073628Y-185885771D01*
X182430771Y-186242914D02*
X182502199Y-186314343D01*
X182430771Y-186385771D01*
X182359342Y-186314343D01*
X182430771Y-186242914D01*
X182430771Y-186385771D01*
X182430771Y-185457200D02*
X182502199Y-185528629D01*
X182430771Y-185600057D01*
X182359342Y-185528629D01*
X182430771Y-185457200D01*
X182430771Y-185600057D01*
X184287914Y-185385771D02*
X184287914Y-186385771D01*
X184287914Y-185528629D02*
X184359342Y-185457200D01*
X184502200Y-185385771D01*
X184716485Y-185385771D01*
X184859342Y-185457200D01*
X184930771Y-185600057D01*
X184930771Y-186385771D01*
X186502200Y-186385771D02*
X186002200Y-185671486D01*
X185645057Y-186385771D02*
X185645057Y-184885771D01*
X186216485Y-184885771D01*
X186359343Y-184957200D01*
X186430771Y-185028629D01*
X186502200Y-185171486D01*
X186502200Y-185385771D01*
X186430771Y-185528629D01*
X186359343Y-185600057D01*
X186216485Y-185671486D01*
X185645057Y-185671486D01*
X187645057Y-185600057D02*
X187145057Y-185600057D01*
X187145057Y-186385771D02*
X187145057Y-184885771D01*
X187859343Y-184885771D01*
X188359342Y-185028629D02*
X188430771Y-184957200D01*
X188573628Y-184885771D01*
X188930771Y-184885771D01*
X189073628Y-184957200D01*
X189145057Y-185028629D01*
X189216485Y-185171486D01*
X189216485Y-185314343D01*
X189145057Y-185528629D01*
X188287914Y-186385771D01*
X189216485Y-186385771D01*
X190502199Y-185385771D02*
X190502199Y-186385771D01*
X190145056Y-184814343D02*
X189787913Y-185885771D01*
X190716485Y-185885771D01*
X191287913Y-186242914D02*
X191359341Y-186314343D01*
X191287913Y-186385771D01*
X191216484Y-186314343D01*
X191287913Y-186242914D01*
X191287913Y-186385771D01*
X192002199Y-186385771D02*
X192002199Y-184885771D01*
X192145056Y-185814343D02*
X192573627Y-186385771D01*
X192573627Y-185385771D02*
X192002199Y-185957200D01*
X193216485Y-186385771D02*
X193216485Y-185385771D01*
X193216485Y-184885771D02*
X193145056Y-184957200D01*
X193216485Y-185028629D01*
X193287913Y-184957200D01*
X193216485Y-184885771D01*
X193216485Y-185028629D01*
X194573628Y-186314343D02*
X194430771Y-186385771D01*
X194145057Y-186385771D01*
X194002199Y-186314343D01*
X193930771Y-186242914D01*
X193859342Y-186100057D01*
X193859342Y-185671486D01*
X193930771Y-185528629D01*
X194002199Y-185457200D01*
X194145057Y-185385771D01*
X194430771Y-185385771D01*
X194573628Y-185457200D01*
X195859342Y-186385771D02*
X195859342Y-185600057D01*
X195787913Y-185457200D01*
X195645056Y-185385771D01*
X195359342Y-185385771D01*
X195216485Y-185457200D01*
X195859342Y-186314343D02*
X195716485Y-186385771D01*
X195359342Y-186385771D01*
X195216485Y-186314343D01*
X195145056Y-186171486D01*
X195145056Y-186028629D01*
X195216485Y-185885771D01*
X195359342Y-185814343D01*
X195716485Y-185814343D01*
X195859342Y-185742914D01*
X197216485Y-186385771D02*
X197216485Y-184885771D01*
X197216485Y-186314343D02*
X197073628Y-186385771D01*
X196787914Y-186385771D01*
X196645056Y-186314343D01*
X196573628Y-186242914D01*
X196502199Y-186100057D01*
X196502199Y-185671486D01*
X196573628Y-185528629D01*
X196645056Y-185457200D01*
X196787914Y-185385771D01*
X197073628Y-185385771D01*
X197216485Y-185457200D01*
X197573628Y-186528629D02*
X198716485Y-186528629D01*
X199073628Y-185385771D02*
X199073628Y-186885771D01*
X199073628Y-185457200D02*
X199216485Y-185385771D01*
X199502199Y-185385771D01*
X199645056Y-185457200D01*
X199716485Y-185528629D01*
X199787914Y-185671486D01*
X199787914Y-186100057D01*
X199716485Y-186242914D01*
X199645056Y-186314343D01*
X199502199Y-186385771D01*
X199216485Y-186385771D01*
X199073628Y-186314343D01*
X201073628Y-186314343D02*
X200930771Y-186385771D01*
X200645057Y-186385771D01*
X200502199Y-186314343D01*
X200430771Y-186242914D01*
X200359342Y-186100057D01*
X200359342Y-185671486D01*
X200430771Y-185528629D01*
X200502199Y-185457200D01*
X200645057Y-185385771D01*
X200930771Y-185385771D01*
X201073628Y-185457200D01*
X201716485Y-186385771D02*
X201716485Y-184885771D01*
X201716485Y-185457200D02*
X201859342Y-185385771D01*
X202145056Y-185385771D01*
X202287913Y-185457200D01*
X202359342Y-185528629D01*
X202430771Y-185671486D01*
X202430771Y-186100057D01*
X202359342Y-186242914D01*
X202287913Y-186314343D01*
X202145056Y-186385771D01*
X201859342Y-186385771D01*
X201716485Y-186314343D01*
D10*
D11*
X177002200Y-181507200D02*
X285002200Y-181507200D01*
D10*
D11*
X178287914Y-183614343D02*
X178502200Y-183685771D01*
X178859343Y-183685771D01*
X179002200Y-183614343D01*
X179073629Y-183542914D01*
X179145057Y-183400057D01*
X179145057Y-183257200D01*
X179073629Y-183114343D01*
X179002200Y-183042914D01*
X178859343Y-182971486D01*
X178573629Y-182900057D01*
X178430771Y-182828629D01*
X178359343Y-182757200D01*
X178287914Y-182614343D01*
X178287914Y-182471486D01*
X178359343Y-182328629D01*
X178430771Y-182257200D01*
X178573629Y-182185771D01*
X178930771Y-182185771D01*
X179145057Y-182257200D01*
X179787914Y-183685771D02*
X179787914Y-182185771D01*
X180430771Y-183685771D02*
X180430771Y-182900057D01*
X180359342Y-182757200D01*
X180216485Y-182685771D01*
X180002200Y-182685771D01*
X179859342Y-182757200D01*
X179787914Y-182828629D01*
X181716485Y-183614343D02*
X181573628Y-183685771D01*
X181287914Y-183685771D01*
X181145057Y-183614343D01*
X181073628Y-183471486D01*
X181073628Y-182900057D01*
X181145057Y-182757200D01*
X181287914Y-182685771D01*
X181573628Y-182685771D01*
X181716485Y-182757200D01*
X181787914Y-182900057D01*
X181787914Y-183042914D01*
X181073628Y-183185771D01*
X183002199Y-183614343D02*
X182859342Y-183685771D01*
X182573628Y-183685771D01*
X182430771Y-183614343D01*
X182359342Y-183471486D01*
X182359342Y-182900057D01*
X182430771Y-182757200D01*
X182573628Y-182685771D01*
X182859342Y-182685771D01*
X183002199Y-182757200D01*
X183073628Y-182900057D01*
X183073628Y-183042914D01*
X182359342Y-183185771D01*
X183502199Y-182685771D02*
X184073628Y-182685771D01*
X183716485Y-182185771D02*
X183716485Y-183471486D01*
X183787913Y-183614343D01*
X183930771Y-183685771D01*
X184073628Y-183685771D01*
X184573628Y-183542914D02*
X184645056Y-183614343D01*
X184573628Y-183685771D01*
X184502199Y-183614343D01*
X184573628Y-183542914D01*
X184573628Y-183685771D01*
X184573628Y-182757200D02*
X184645056Y-182828629D01*
X184573628Y-182900057D01*
X184502199Y-182828629D01*
X184573628Y-182757200D01*
X184573628Y-182900057D01*
D10*
D11*
X197002200Y-191507200D02*
X197002200Y-194507200D01*
D10*
D11*
X261002200Y-191507200D02*
X261002200Y-198007200D01*
D12*
X150103037Y-111025714D02*
X150022679Y-111097143D01*
X149799465Y-111168571D01*
X149656608Y-111168571D01*
X149451251Y-111097143D01*
X149326250Y-110954286D01*
X149272679Y-110811429D01*
X149236965Y-110525714D01*
X149263750Y-110311429D01*
X149370894Y-110025714D01*
X149460179Y-109882857D01*
X149620894Y-109740000D01*
X149844108Y-109668571D01*
X149986965Y-109668571D01*
X150192322Y-109740000D01*
X150254822Y-109811429D01*
X150942323Y-111168571D02*
X150808393Y-111097143D01*
X150754822Y-110954286D01*
X150915537Y-109668571D01*
X152281608Y-110168571D02*
X152156608Y-111168571D01*
X151638751Y-110168571D02*
X151540536Y-110954286D01*
X151594107Y-111097143D01*
X151728037Y-111168571D01*
X151942322Y-111168571D01*
X152094107Y-111097143D01*
X152174465Y-111025714D01*
X153451250Y-111097143D02*
X153299465Y-111168571D01*
X153013751Y-111168571D01*
X152879822Y-111097143D01*
X152826250Y-110954286D01*
X152897679Y-110382857D01*
X152986965Y-110240000D01*
X153138751Y-110168571D01*
X153424465Y-110168571D01*
X153558393Y-110240000D01*
X153611965Y-110382857D01*
X153594108Y-110525714D01*
X152861965Y-110668571D01*
X154370894Y-111168571D02*
X154236964Y-111097143D01*
X154183393Y-110954286D01*
X154344108Y-109668571D01*
X155522678Y-111097143D02*
X155370893Y-111168571D01*
X155085179Y-111168571D01*
X154951250Y-111097143D01*
X154897678Y-110954286D01*
X154969107Y-110382857D01*
X155058393Y-110240000D01*
X155210179Y-110168571D01*
X155495893Y-110168571D01*
X155629821Y-110240000D01*
X155683393Y-110382857D01*
X155665536Y-110525714D01*
X154933393Y-110668571D01*
X156165535Y-111097143D02*
X156299464Y-111168571D01*
X156585179Y-111168571D01*
X156736964Y-111097143D01*
X156826249Y-110954286D01*
X156835178Y-110882857D01*
X156781607Y-110740000D01*
X156647679Y-110668571D01*
X156433393Y-110668571D01*
X156299464Y-110597143D01*
X156245892Y-110454286D01*
X156254821Y-110382857D01*
X156344107Y-110240000D01*
X156495893Y-110168571D01*
X156710179Y-110168571D01*
X156844107Y-110240000D01*
X157379821Y-111097143D02*
X157513750Y-111168571D01*
X157799465Y-111168571D01*
X157951250Y-111097143D01*
X158040535Y-110954286D01*
X158049464Y-110882857D01*
X157995893Y-110740000D01*
X157861965Y-110668571D01*
X157647679Y-110668571D01*
X157513750Y-110597143D01*
X157460178Y-110454286D01*
X157469107Y-110382857D01*
X157558393Y-110240000D01*
X157710179Y-110168571D01*
X157924465Y-110168571D01*
X158058393Y-110240000D01*
D14*
X169940000Y-96590000D02*
X169940000Y-95320000D01*
X169940000Y-95320000D02*
X170575000Y-94685000D01*
X171845000Y-94685000D02*
X172480000Y-95320000D01*
X170575000Y-99765000D02*
X169940000Y-99130000D01*
X169940000Y-99130000D02*
X169940000Y-97860000D01*
X169940000Y-97860000D02*
X170575000Y-97225000D01*
X171845000Y-97225000D02*
X172480000Y-97860000D01*
X172480000Y-97860000D02*
X172480000Y-99130000D01*
X172480000Y-99130000D02*
X171845000Y-99765000D01*
X169940000Y-96590000D02*
X170575000Y-97225000D01*
X171845000Y-97225000D02*
X172480000Y-96590000D01*
X172480000Y-95320000D02*
X172480000Y-96590000D01*
X169940000Y-104210000D02*
X169940000Y-102940000D01*
X169940000Y-102940000D02*
X170575000Y-102305000D01*
X171845000Y-102305000D02*
X172480000Y-102940000D01*
X170575000Y-102305000D02*
X169940000Y-101670000D01*
X169940000Y-101670000D02*
X169940000Y-100400000D01*
X169940000Y-100400000D02*
X170575000Y-99765000D01*
X171845000Y-99765000D02*
X172480000Y-100400000D01*
X172480000Y-100400000D02*
X172480000Y-101670000D01*
X172480000Y-101670000D02*
X171845000Y-102305000D01*
X170575000Y-107385000D02*
X169940000Y-106750000D01*
X169940000Y-106750000D02*
X169940000Y-105480000D01*
X169940000Y-105480000D02*
X170575000Y-104845000D01*
X171845000Y-104845000D02*
X172480000Y-105480000D01*
X172480000Y-105480000D02*
X172480000Y-106750000D01*
X172480000Y-106750000D02*
X171845000Y-107385000D01*
X169940000Y-104210000D02*
X170575000Y-104845000D01*
X171845000Y-104845000D02*
X172480000Y-104210000D01*
X172480000Y-102940000D02*
X172480000Y-104210000D01*
X169940000Y-111830000D02*
X169940000Y-110560000D01*
X169940000Y-110560000D02*
X170575000Y-109925000D01*
X171845000Y-109925000D02*
X172480000Y-110560000D01*
X170575000Y-109925000D02*
X169940000Y-109290000D01*
X169940000Y-109290000D02*
X169940000Y-108020000D01*
X169940000Y-108020000D02*
X170575000Y-107385000D01*
X171845000Y-107385000D02*
X172480000Y-108020000D01*
X172480000Y-108020000D02*
X172480000Y-109290000D01*
X172480000Y-109290000D02*
X171845000Y-109925000D01*
X170575000Y-112465000D02*
X171845000Y-112465000D01*
X169940000Y-111830000D02*
X170575000Y-112465000D01*
X171845000Y-112465000D02*
X172480000Y-111830000D01*
X172480000Y-110560000D02*
X172480000Y-111830000D01*
X169940000Y-94050000D02*
X169940000Y-92780000D01*
X169940000Y-92780000D02*
X170575000Y-92145000D01*
X170575000Y-92145000D02*
X171845000Y-92145000D01*
X171845000Y-92145000D02*
X172480000Y-92780000D01*
X169940000Y-94050000D02*
X170575000Y-94685000D01*
X171845000Y-94685000D02*
X172480000Y-94050000D01*
X172480000Y-92780000D02*
X172480000Y-94050000D01*
D11*
X166578300Y-107142440D02*
X166606240Y-106695400D01*
X150055600Y-107175460D02*
X166578300Y-107142440D01*
X166575760Y-96891000D02*
X166585920Y-106878280D01*
X150058140Y-96896080D02*
X166575760Y-96891000D01*
X150068300Y-107170380D02*
X150058140Y-96896080D01*
D15*
X168384524Y-102738333D02*
X169291667Y-102738333D01*
X169473095Y-102798809D01*
X169594048Y-102919761D01*
X169654524Y-103101190D01*
X169654524Y-103222142D01*
X169654524Y-101468333D02*
X169654524Y-102194047D01*
X169654524Y-101831190D02*
X168384524Y-101831190D01*
X168565952Y-101952142D01*
X168686905Y-102073095D01*
X168747381Y-102194047D01*
D16*
X153611686Y-99574261D02*
X153611686Y-100383785D01*
X153654543Y-100479023D01*
X153697400Y-100526642D01*
X153783114Y-100574261D01*
X153954543Y-100574261D01*
X154040257Y-100526642D01*
X154083114Y-100479023D01*
X154125971Y-100383785D01*
X154125971Y-99574261D01*
X155025971Y-100574261D02*
X154511686Y-100574261D01*
X154768828Y-100574261D02*
X154768828Y-99574261D01*
X154683114Y-99717118D01*
X154597400Y-99812356D01*
X154511686Y-99859975D01*
D17*
X158366667Y-105431667D02*
X158600000Y-106131667D01*
X158833333Y-105431667D01*
X159466667Y-106065000D02*
X159433333Y-106098333D01*
X159333333Y-106131667D01*
X159266667Y-106131667D01*
X159166667Y-106098333D01*
X159100000Y-106031667D01*
X159066667Y-105965000D01*
X159033333Y-105831667D01*
X159033333Y-105731667D01*
X159066667Y-105598333D01*
X159100000Y-105531667D01*
X159166667Y-105465000D01*
X159266667Y-105431667D01*
X159333333Y-105431667D01*
X159433333Y-105465000D01*
X159466667Y-105498333D01*
X160166667Y-106065000D02*
X160133333Y-106098333D01*
X160033333Y-106131667D01*
X159966667Y-106131667D01*
X159866667Y-106098333D01*
X159800000Y-106031667D01*
X159766667Y-105965000D01*
X159733333Y-105831667D01*
X159733333Y-105731667D01*
X159766667Y-105598333D01*
X159800000Y-105531667D01*
X159866667Y-105465000D01*
X159966667Y-105431667D01*
X160033333Y-105431667D01*
X160133333Y-105465000D01*
X160166667Y-105498333D01*
X158756667Y-103605000D02*
X158723333Y-103638333D01*
X158623333Y-103671667D01*
X158556667Y-103671667D01*
X158456667Y-103638333D01*
X158390000Y-103571667D01*
X158356667Y-103505000D01*
X158323333Y-103371667D01*
X158323333Y-103271667D01*
X158356667Y-103138333D01*
X158390000Y-103071667D01*
X158456667Y-103005000D01*
X158556667Y-102971667D01*
X158623333Y-102971667D01*
X158723333Y-103005000D01*
X158756667Y-103038333D01*
X159023333Y-103638333D02*
X159123333Y-103671667D01*
X159290000Y-103671667D01*
X159356667Y-103638333D01*
X159390000Y-103605000D01*
X159423333Y-103538333D01*
X159423333Y-103471667D01*
X159390000Y-103405000D01*
X159356667Y-103371667D01*
X159290000Y-103338333D01*
X159156667Y-103305000D01*
X159090000Y-103271667D01*
X159056667Y-103238333D01*
X159023333Y-103171667D01*
X159023333Y-103105000D01*
X159056667Y-103038333D01*
X159090000Y-103005000D01*
X159156667Y-102971667D01*
X159323333Y-102971667D01*
X159423333Y-103005000D01*
X159723334Y-103671667D02*
X159723334Y-102971667D01*
X160123334Y-103671667D01*
X160123334Y-102971667D01*
X158050001Y-101121667D02*
X158050001Y-100421667D01*
X158283334Y-100921667D01*
X158516667Y-100421667D01*
X158516667Y-101121667D01*
X158983334Y-100421667D02*
X159116667Y-100421667D01*
X159183334Y-100455000D01*
X159250001Y-100521667D01*
X159283334Y-100655000D01*
X159283334Y-100888333D01*
X159250001Y-101021667D01*
X159183334Y-101088333D01*
X159116667Y-101121667D01*
X158983334Y-101121667D01*
X158916667Y-101088333D01*
X158850001Y-101021667D01*
X158816667Y-100888333D01*
X158816667Y-100655000D01*
X158850001Y-100521667D01*
X158916667Y-100455000D01*
X158983334Y-100421667D01*
X159550000Y-101088333D02*
X159650000Y-101121667D01*
X159816667Y-101121667D01*
X159883334Y-101088333D01*
X159916667Y-101055000D01*
X159950000Y-100988333D01*
X159950000Y-100921667D01*
X159916667Y-100855000D01*
X159883334Y-100821667D01*
X159816667Y-100788333D01*
X159683334Y-100755000D01*
X159616667Y-100721667D01*
X159583334Y-100688333D01*
X159550000Y-100621667D01*
X159550000Y-100555000D01*
X159583334Y-100488333D01*
X159616667Y-100455000D01*
X159683334Y-100421667D01*
X159850000Y-100421667D01*
X159950000Y-100455000D01*
X160250001Y-101121667D02*
X160250001Y-100421667D01*
X158523334Y-98501667D02*
X158523334Y-97801667D01*
X159256667Y-98501667D02*
X159023333Y-98168333D01*
X158856667Y-98501667D02*
X158856667Y-97801667D01*
X159123333Y-97801667D01*
X159190000Y-97835000D01*
X159223333Y-97868333D01*
X159256667Y-97935000D01*
X159256667Y-98035000D01*
X159223333Y-98101667D01*
X159190000Y-98135000D01*
X159123333Y-98168333D01*
X158856667Y-98168333D01*
X160023333Y-98568333D02*
X159956667Y-98535000D01*
X159890000Y-98468333D01*
X159790000Y-98368333D01*
X159723333Y-98335000D01*
X159656667Y-98335000D01*
X159690000Y-98501667D02*
X159623333Y-98468333D01*
X159556667Y-98401667D01*
X159523333Y-98268333D01*
X159523333Y-98035000D01*
X159556667Y-97901667D01*
X159623333Y-97835000D01*
X159690000Y-97801667D01*
X159823333Y-97801667D01*
X159890000Y-97835000D01*
X159956667Y-97901667D01*
X159990000Y-98035000D01*
X159990000Y-98268333D01*
X159956667Y-98401667D01*
X159890000Y-98468333D01*
X159823333Y-98501667D01*
X159690000Y-98501667D01*
X164890001Y-98501667D02*
X164890001Y-97801667D01*
X165123334Y-98301667D01*
X165356667Y-97801667D01*
X165356667Y-98501667D01*
X165690001Y-98501667D02*
X165690001Y-97801667D01*
X165990000Y-98468333D02*
X166090000Y-98501667D01*
X166256667Y-98501667D01*
X166323334Y-98468333D01*
X166356667Y-98435000D01*
X166390000Y-98368333D01*
X166390000Y-98301667D01*
X166356667Y-98235000D01*
X166323334Y-98201667D01*
X166256667Y-98168333D01*
X166123334Y-98135000D01*
X166056667Y-98101667D01*
X166023334Y-98068333D01*
X165990000Y-98001667D01*
X165990000Y-97935000D01*
X166023334Y-97868333D01*
X166056667Y-97835000D01*
X166123334Y-97801667D01*
X166290000Y-97801667D01*
X166390000Y-97835000D01*
X166823334Y-97801667D02*
X166956667Y-97801667D01*
X167023334Y-97835000D01*
X167090001Y-97901667D01*
X167123334Y-98035000D01*
X167123334Y-98268333D01*
X167090001Y-98401667D01*
X167023334Y-98468333D01*
X166956667Y-98501667D01*
X166823334Y-98501667D01*
X166756667Y-98468333D01*
X166690001Y-98401667D01*
X166656667Y-98268333D01*
X166656667Y-98035000D01*
X166690001Y-97901667D01*
X166756667Y-97835000D01*
X166823334Y-97801667D01*
X164670000Y-100978333D02*
X164770000Y-101011667D01*
X164936667Y-101011667D01*
X165003334Y-100978333D01*
X165036667Y-100945000D01*
X165070000Y-100878333D01*
X165070000Y-100811667D01*
X165036667Y-100745000D01*
X165003334Y-100711667D01*
X164936667Y-100678333D01*
X164803334Y-100645000D01*
X164736667Y-100611667D01*
X164703334Y-100578333D01*
X164670000Y-100511667D01*
X164670000Y-100445000D01*
X164703334Y-100378333D01*
X164736667Y-100345000D01*
X164803334Y-100311667D01*
X164970000Y-100311667D01*
X165070000Y-100345000D01*
X165770001Y-100945000D02*
X165736667Y-100978333D01*
X165636667Y-101011667D01*
X165570001Y-101011667D01*
X165470001Y-100978333D01*
X165403334Y-100911667D01*
X165370001Y-100845000D01*
X165336667Y-100711667D01*
X165336667Y-100611667D01*
X165370001Y-100478333D01*
X165403334Y-100411667D01*
X165470001Y-100345000D01*
X165570001Y-100311667D01*
X165636667Y-100311667D01*
X165736667Y-100345000D01*
X165770001Y-100378333D01*
X166070001Y-101011667D02*
X166070001Y-100311667D01*
X166470001Y-101011667D02*
X166170001Y-100611667D01*
X166470001Y-100311667D02*
X166070001Y-100711667D01*
X165520001Y-103625000D02*
X165486667Y-103658333D01*
X165386667Y-103691667D01*
X165320001Y-103691667D01*
X165220001Y-103658333D01*
X165153334Y-103591667D01*
X165120001Y-103525000D01*
X165086667Y-103391667D01*
X165086667Y-103291667D01*
X165120001Y-103158333D01*
X165153334Y-103091667D01*
X165220001Y-103025000D01*
X165320001Y-102991667D01*
X165386667Y-102991667D01*
X165486667Y-103025000D01*
X165520001Y-103058333D01*
X165820001Y-103325000D02*
X166053334Y-103325000D01*
X166153334Y-103691667D02*
X165820001Y-103691667D01*
X165820001Y-102991667D01*
X166153334Y-102991667D01*
X165066667Y-105555000D02*
X165000001Y-105521667D01*
X164900001Y-105521667D01*
X164800001Y-105555000D01*
X164733334Y-105621667D01*
X164700001Y-105688333D01*
X164666667Y-105821667D01*
X164666667Y-105921667D01*
X164700001Y-106055000D01*
X164733334Y-106121667D01*
X164800001Y-106188333D01*
X164900001Y-106221667D01*
X164966667Y-106221667D01*
X165066667Y-106188333D01*
X165100001Y-106155000D01*
X165100001Y-105921667D01*
X164966667Y-105921667D01*
X165400001Y-106221667D02*
X165400001Y-105521667D01*
X165800001Y-106221667D01*
X165800001Y-105521667D01*
X166133334Y-106221667D02*
X166133334Y-105521667D01*
X166300000Y-105521667D01*
X166400000Y-105555000D01*
X166466667Y-105621667D01*
X166500000Y-105688333D01*
X166533334Y-105821667D01*
X166533334Y-105921667D01*
X166500000Y-106055000D01*
X166466667Y-106121667D01*
X166400000Y-106188333D01*
X166300000Y-106221667D01*
X166133334Y-106221667D01*
M02*
